<svg width="1366" height="768" viewBox="0 0 1366 768" fill="none" xmlns="http://www.w3.org/2000/svg" style="">
<path width="1365.33" height="768" fill="black" d="M0 0 L1365.33 0 L1365.33 768 L0 768 Z" class="shum_404_0"></path>
<path d="M300 564.5V569.5H305H406H411V564.5V468.5H456.5H461.5V463.5V413V408H456.5H411V211V206H406H254.5H249.5V211V256.5H204H199V261.5V307H153.5H148.5V312V357.5H103H98V362.5V463.5V468.5H103H300V564.5ZM254.5 367.5H259.5V362.5V317H300V408H209V367.5H254.5ZM603 564.5V569.5H608H759.5H764.5V564.5V519H810H815V514V468.5H860.5H865.5V463.5V312V307H860.5H815V261.5V256.5H810H764.5V211V206H759.5H608H603V211V256.5H557.5H552.5V261.5V307H507H502V312V463.5V468.5H507H552.5V514V519H557.5H603V564.5ZM613 266.5H704V312V317H709H754.5V509H663.5V463.5V458.5H658.5H613V266.5ZM1108 564.5V569.5H1113H1214H1219V564.5V468.5H1264.5H1269.5V463.5V413V408H1264.5H1219V211V206H1214H1062.5H1057.5V211V256.5H1012H1007V261.5V307H961.5H956.5V312V357.5H911H906V362.5V463.5V468.5H911H1108V564.5ZM1062.5 367.5H1067.5V362.5V317H1108V408H1017V367.5H1062.5Z" stroke="#FF0000" stroke-width="10" class="shum_404_1"></path>
<style>.shum_404_0{stroke-dasharray:4267 4269;stroke-dashoffset:4268;animation:shum_404_draw 8000ms ease-in 0ms forwards;}.shum_404_1{stroke-dasharray:5858 5860;stroke-dashoffset:5859;animation:shum_404_draw 8000ms ease-in 0ms forwards;}@keyframes shum_404_draw{100%{stroke-dashoffset:0;}}@keyframes shum_404_fade{0%{stroke-opacity:1;}96.72131147540983%{stroke-opacity:1;}100%{stroke-opacity:0;}}</style></svg>
