<svg width="1080" height="1080" viewBox="0 0 1080 1080" fill="none" xmlns="http://www.w3.org/2000/svg" style="">
<path d="M1080 0H0V1080H1080V0Z" fill="#FFCA1B" class="shum_cat_a_0"></path>
<path d="M234 614.436C234 567.436 254 499.436 295 453.436C259 413.436 260 308.436 295 283.436C325 258.436 397 300.436 435 350.436C460 340.436 480 333.436 540 333.436C600 333.436 620 340.436 645 350.436C683 300.436 755 258.436 785 283.436C820 308.436 821 413.436 785 453.436C826 498.548 846 567.436 846 614.436C846 731.436 780 803.436 540 803.436C300 803.436 234 731.436 234 614.436Z" fill="black" stroke="#F1F1DC" stroke-width="0" stroke-miterlimit="3" stroke-linecap="square" class="shum_cat_a_1f"></path>
<path d="M444 798.735C472.379 801.839 504.26 803.436 540 803.436C685.803 803.436 767.388 776.863 808.969 729.77C800.488 691.486 768.337 682.286 664 705.4C637.333 712.869 611.268 721.111 588 729.77C526.42 752.688 478.409 782.91 444 798.735Z" fill="#FFFFFF" class="shum_cat_a_4"/>
<path d="M295 453.436C254 499.436 234 567.436 234 614.436C234 731.436 300 803.436 540 803.436C780 803.436 846 731.436 846 614.436C846 567.436 826 498.548 785 453.436C821 413.436 820 308.436 785 283.436C755 258.436 683 300.436 645 350.436C620 340.436 600 333.436 540 333.436C480 333.436 460 340.436 435 350.436C397 300.436 325 258.436 295 283.436C260 308.436 259 413.436 295 453.436Z" stroke="#F1F1DC" stroke-width="10" stroke-miterlimit="3" stroke-linecap="square" class="shum_cat_a_1"></path>
<path d="M575 659.527C540 669.272 540 649.838 540 608C540 649.838 540 669.272 505 659.527" stroke="#F1F1DC" stroke-width="10" stroke-linecap="round" class="shum_cat_a_2"></path>
<path d="M510 580C510 569.871 530 568 540 568C550 568 570 569.871 570 580C570 590.129 556 609 540 609C524 609 510 590.129 510 580Z" fill="#2D3035" class="shum_cat_a_3"></path>
<path d="M634 582.865C634 568.831 645.394 557.436 659.429 557.436C673.464 557.436 684.858 568.831 684.858 582.865C684.858 596.9 673.464 608.294 659.429 608.294C645.394 608.294 634 596.9 634 582.865Z" fill="#718358" class="shum_cat_a_4"></path>
<path d="M395 582.865C395 568.831 406.394 557.436 420.429 557.436C434.464 557.436 445.858 568.831 445.858 582.865C445.858 596.9 434.464 608.294 420.429 608.294C406.394 608.294 395 596.9 395 582.865Z" fill="#718358" class="shum_cat_a_5"></path>
<path d="M349.882 305.345C324.352 294.059 301.778 291.463 292.138 329.576C285.188 357.056 282.363 385.329 303.05 426.045C314.331 448.248 416.713 370.333 408.536 357.008C391.384 329.057 375.413 316.63 349.882 305.345Z" fill="#695356" class="shum_cat_a_6"></path>
<path d="M730.118 305.345C755.648 294.059 778.222 291.463 787.862 329.576C794.812 357.056 797.637 385.329 776.95 426.045C765.669 448.248 663.287 370.333 671.464 357.008C688.616 329.057 704.587 316.63 730.118 305.345Z" fill="#695356" class="shum_cat_a_7"></path>
<path d="M735.787 657.506C752.454 653.494 771.116 653.588 791.865 657.698" stroke="#F1F1DC" stroke-width="9.176" stroke-miterlimit="3" stroke-linecap="round" class="shum_cat_a_8"></path>
<path d="M732 635.714C747.894 629.291 766.367 626.636 787.494 627.644" stroke="#F1F1DC" stroke-width="9.176" stroke-miterlimit="3" stroke-linecap="round" class="shum_cat_a_9"></path>
<path d="M344.078 657.506C327.411 653.494 308.749 653.588 288 657.698" stroke="#F1F1DC" stroke-width="9.176" stroke-miterlimit="3" stroke-linecap="round" class="shum_cat_a_10"></path>
<path d="M347.865 635.714C331.971 629.291 313.498 626.636 292.371 627.644" stroke="#F1F1DC" stroke-width="9.176" stroke-miterlimit="3" stroke-linecap="round" class="shum_cat_a_11"></path>
<style data-artist="Shum">
.shum_cat_a_1{stroke-dasharray:2087 2089;stroke-dashoffset:2088;animation:shum_cat_a_draw_1 6.2s linear 0s infinite,shum_cat_a_fade 6.2s linear 0s infinite}.shum_cat_a_1f{stroke-dasharray:2087 2089;stroke-dashoffset:2088;animation:shum_cat_a_draw_1f 6.2s linear 0s infinite,shum_cat_a_fade 6.2s linear 0s infinite}.shum_cat_a_2{stroke-dasharray:160 162;stroke-dashoffset:161;animation:shum_cat_a_draw_2 6.2s linear 0s infinite,shum_cat_a_fade 6.2s linear 0s infinite}.shum_cat_a_3{stroke-dasharray:161 163;stroke-dashoffset:162;animation:shum_cat_a_draw_3 6.2s linear 0s infinite,shum_cat_a_fade 6.2s linear 0s infinite}.shum_cat_a_4,.shum_cat_a_5{stroke-dasharray:160 162;stroke-dashoffset:161;animation:shum_cat_a_draw_4 6.2s linear 0s infinite,shum_cat_a_fade 6.2s linear 0s infinite}.shum_cat_a_6,.shum_cat_a_7{stroke-dasharray:392 394;stroke-dashoffset:393;animation:shum_cat_a_draw_6 6.2s linear 0s infinite,shum_cat_a_fade 6.2s linear 0s infinite}.shum_cat_a_8{stroke-dasharray:57 59;stroke-dashoffset:58;animation:shum_cat_a_draw_8 6.2s linear 0s infinite,shum_cat_a_fade 6.2s linear 0s infinite}.shum_cat_a_9{stroke-dasharray:57 59;stroke-dashoffset:58;animation:shum_cat_a_draw_9 6.2s linear 0s infinite,shum_cat_a_fade 6.2s linear 0s infinite}.shum_cat_a_10{stroke-dasharray:57 59;stroke-dashoffset:58;animation:shum_cat_a_draw_10 6.2s linear 0s infinite,shum_cat_a_fade 6.2s linear 0s infinite}.shum_cat_a_11{stroke-dasharray:57 59;stroke-dashoffset:58;animation:shum_cat_a_draw_11 6.2s linear 0s infinite,shum_cat_a_fade 6.2s linear 0s infinite}@keyframes shum_cat_a_draw{100%{stroke-dashoffset:0}}@keyframes shum_cat_a_fade{0%{stroke-opacity:1}93.54838709677419%{stroke-opacity:1}100%{stroke-opacity:0}}@keyframes shum_cat_a_draw_1f{0%{opacity:0}12.903225806451612%{opacity:1}93.54838709677419%{opacity:1}100%,97%{opacity:0}}@keyframes shum_cat_a_draw_1{14.369501466275658%{stroke-dashoffset:2088}46.6275659824047%{stroke-dashoffset:0}100%{stroke-dashoffset:0}}@keyframes shum_cat_a_draw_2{15.835777126099707%{stroke-dashoffset:161}48.09384164222874%{stroke-dashoffset:0}100%{stroke-dashoffset:0}}@keyframes shum_cat_a_draw_3{0%{opacity:0}12.903225806451612%{opacity:1}93.54838709677419%{opacity:1}100%{opacity:0}}@keyframes shum_cat_a_draw_4{0%,8%{opacity:0}18%{opacity:1}93.54838709677419%{opacity:1}100%{opacity:0}}@keyframes shum_cat_a_draw_6{0%{opacity:0}12.903225806451612%{opacity:1}93.54838709677419%{opacity:1}100%{opacity:0}}@keyframes shum_cat_a_draw_8{24.633431085043988%{stroke-dashoffset:58}56.89149560117301%{stroke-dashoffset:0}100%{stroke-dashoffset:0}}@keyframes shum_cat_a_draw_9{26.099706744868033%{stroke-dashoffset:58}58.35777126099706%{stroke-dashoffset:0}100%{stroke-dashoffset:0}}@keyframes shum_cat_a_draw_10{27.56598240469208%{stroke-dashoffset:58}59.82404692082112%{stroke-dashoffset:0}100%{stroke-dashoffset:0}}@keyframes shum_cat_a_draw_11{29.03225806451613%{stroke-dashoffset:58}61.29032258064516%{stroke-dashoffset:0}100%{stroke-dashoffset:0}}
</style>
</svg>
