<svg width="1080" height="1080" viewBox="0 0 1080 1080" fill="none" xmlns="http://www.w3.org/2000/svg" style="">
<path d="M1080 0H0V1080H1080V0Z" fill="#F37EAA" class="shum_cat_a_0"></path>
<path d="M234 614.436C234 567.436 254 499.436 295 453.436C259 413.436 260 308.436 295 283.436C325 258.436 397 300.436 435 350.436C460 340.436 480 333.436 540 333.436C600 333.436 620 340.436 645 350.436C683 300.436 755 258.436 785 283.436C820 308.436 821 413.436 785 453.436C826 498.548 846 567.436 846 614.436C846 731.436 780 803.436 540 803.436C300 803.436 234 731.436 234 614.436Z" fill="#F2A843" stroke="#F1F1DC" stroke-width="0" stroke-miterlimit="3" stroke-linecap="square" class="shum_cat_a_1f"></path>
<path d="M487.723 458.509C493.542 457.134 491.277 426.466 482.664 390.01C477.799 369.414 471.948 351.377 466.729 339.829C461.983 340.962 457.613 342.223 453.414 343.594C453.98 356.245 456.807 374.722 461.594 394.988C470.207 431.444 481.905 459.883 487.723 458.509Z" fill="#DA8B4A" class="shum_cat_a_4"/>
<path d="M512.379 412.948C517.394 412.328 518.311 386.353 514.428 354.93C513.515 347.546 512.418 340.517 511.21 334.094C505.049 334.407 499.435 334.828 494.267 335.347C494.652 342.101 495.315 349.474 496.267 357.175C500.15 388.597 507.364 413.567 512.379 412.948Z" fill="#DA8B4A" class="shum_cat_a_4"/>
<path d="M567.617 412.948C562.602 412.328 561.685 386.353 565.568 354.93C566.481 347.546 567.577 340.517 568.786 334.094C574.947 334.407 580.561 334.828 585.729 335.347C585.344 342.1 584.68 349.474 583.729 357.175C579.845 388.597 572.632 413.567 567.617 412.948Z" fill="#DA8B4A" class="shum_cat_a_4"/>
<path d="M592.277 458.509C586.458 457.134 588.723 426.466 597.336 390.01C602.201 369.414 608.052 351.377 613.271 339.829C618.017 340.962 622.387 342.223 626.586 343.594C626.02 356.245 623.193 374.722 618.406 394.988C609.793 431.444 598.095 459.883 592.277 458.509Z" fill="#DA8B4A" class="shum_cat_a_4"/>
<path d="M540 333.436C536.905 333.436 533.916 333.455 531.027 333.491C531.39 363.528 535.336 391.656 540.149 391.656C544.963 391.656 548.637 363.528 548.975 333.491C546.086 333.455 543.096 333.436 540 333.436Z" fill="#DA8B4A" class="shum_cat_a_4"/>
<path d="M295 453.436C254 499.436 234 567.436 234 614.436C234 731.436 300 803.436 540 803.436C780 803.436 846 731.436 846 614.436C846 567.436 826 498.548 785 453.436C821 413.436 820 308.436 785 283.436C755 258.436 683 300.436 645 350.436C620 340.436 600 333.436 540 333.436C480 333.436 460 340.436 435 350.436C397 300.436 325 258.436 295 283.436C260 308.436 259 413.436 295 453.436Z" stroke="#5B3616" stroke-width="10" stroke-miterlimit="3" stroke-linecap="square" class="shum_cat_a_1"></path>
<path d="M575 659.527C540 669.272 540 649.838 540 608C540 649.838 540 669.272 505 659.527" stroke="#5B3616" stroke-width="10" stroke-linecap="round" class="shum_cat_a_2"></path>
<path d="M510 580C510 569.871 530 568 540 568C550 568 570 569.871 570 580C570 590.129 556 609 540 609C524 609 510 590.129 510 580Z" fill="#E1BEBD" class="shum_cat_a_3"></path>
<path d="M634 582.865C634 568.831 645.394 557.436 659.429 557.436C673.464 557.436 684.858 568.831 684.858 582.865C684.858 596.9 673.464 608.294 659.429 608.294C645.394 608.294 634 596.9 634 582.865Z" fill="#5B3616" class="shum_cat_a_4"/>
<path d="M395 582.865C395 568.831 406.394 557.436 420.429 557.436C434.464 557.436 445.858 568.831 445.858 582.865C445.858 596.9 434.464 608.294 420.429 608.294C406.394 608.294 395 596.9 395 582.865Z" fill="#5B3616" class="shum_cat_a_4"/>
<path d="M349.882 305.345C324.352 294.059 301.778 291.463 292.138 329.576C285.188 357.056 282.363 385.329 303.05 426.045C314.331 448.248 416.713 370.333 408.536 357.008C391.384 329.057 375.413 316.63 349.882 305.345Z" fill="#E1BEBD" class="shum_cat_a_6"></path>
<path d="M730.118 305.345C755.648 294.059 778.222 291.463 787.862 329.576C794.812 357.056 797.637 385.329 776.95 426.045C765.669 448.248 663.287 370.333 671.464 357.008C688.616 329.057 704.587 316.63 730.118 305.345Z" fill="#E1BEBD" class="shum_cat_a_7"></path>
<path d="M735.787 657.506C752.454 653.494 771.116 653.588 791.865 657.698" stroke="#5B3616" stroke-width="9.176" stroke-miterlimit="3" stroke-linecap="round" class="shum_cat_a_8"></path>
<path d="M732 635.714C747.894 629.291 766.367 626.636 787.494 627.644" stroke="#5B3616" stroke-width="9.176" stroke-miterlimit="3" stroke-linecap="round" class="shum_cat_a_9"></path>
<path d="M344.078 657.506C327.411 653.494 308.749 653.588 288 657.698" stroke="#5B3616" stroke-width="9.176" stroke-miterlimit="3" stroke-linecap="round" class="shum_cat_a_10"></path>
<path d="M347.865 635.714C331.971 629.291 313.498 626.636 292.371 627.644" stroke="#5B3616" stroke-width="9.176" stroke-miterlimit="3" stroke-linecap="round" class="shum_cat_a_11"></path>
<style data-artist="Shum">
.shum_cat_a_1{stroke-dasharray:2087 2089;stroke-dashoffset:2088;animation:shum_cat_a_draw_1 6.2s linear 0s infinite,shum_cat_a_fade 6.2s linear 0s infinite}.shum_cat_a_1f{stroke-dasharray:2087 2089;stroke-dashoffset:2088;animation:shum_cat_a_draw_1f 6.2s linear 0s infinite,shum_cat_a_fade 6.2s linear 0s infinite}.shum_cat_a_2{stroke-dasharray:160 162;stroke-dashoffset:161;animation:shum_cat_a_draw_2 6.2s linear 0s infinite,shum_cat_a_fade 6.2s linear 0s infinite}.shum_cat_a_3{stroke-dasharray:161 163;stroke-dashoffset:162;animation:shum_cat_a_draw_3 6.2s linear 0s infinite,shum_cat_a_fade 6.2s linear 0s infinite}.shum_cat_a_4,.shum_cat_a_5{stroke-dasharray:160 162;stroke-dashoffset:161;animation:shum_cat_a_draw_4 6.2s linear 0s infinite,shum_cat_a_fade 6.2s linear 0s infinite}.shum_cat_a_6,.shum_cat_a_7{stroke-dasharray:392 394;stroke-dashoffset:393;animation:shum_cat_a_draw_6 6.2s linear 0s infinite,shum_cat_a_fade 6.2s linear 0s infinite}.shum_cat_a_8{stroke-dasharray:57 59;stroke-dashoffset:58;animation:shum_cat_a_draw_8 6.2s linear 0s infinite,shum_cat_a_fade 6.2s linear 0s infinite}.shum_cat_a_9{stroke-dasharray:57 59;stroke-dashoffset:58;animation:shum_cat_a_draw_9 6.2s linear 0s infinite,shum_cat_a_fade 6.2s linear 0s infinite}.shum_cat_a_10{stroke-dasharray:57 59;stroke-dashoffset:58;animation:shum_cat_a_draw_10 6.2s linear 0s infinite,shum_cat_a_fade 6.2s linear 0s infinite}.shum_cat_a_11{stroke-dasharray:57 59;stroke-dashoffset:58;animation:shum_cat_a_draw_11 6.2s linear 0s infinite,shum_cat_a_fade 6.2s linear 0s infinite}@keyframes shum_cat_a_draw{100%{stroke-dashoffset:0}}@keyframes shum_cat_a_fade{0%{stroke-opacity:1}93.54838709677419%{stroke-opacity:1}100%{stroke-opacity:0}}@keyframes shum_cat_a_draw_1f{0%{opacity:0}12.903225806451612%{opacity:1}93.54838709677419%{opacity:1}100%,97%{opacity:0}}@keyframes shum_cat_a_draw_1{14.369501466275658%{stroke-dashoffset:2088}46.6275659824047%{stroke-dashoffset:0}100%{stroke-dashoffset:0}}@keyframes shum_cat_a_draw_2{15.835777126099707%{stroke-dashoffset:161}48.09384164222874%{stroke-dashoffset:0}100%{stroke-dashoffset:0}}@keyframes shum_cat_a_draw_3{0%{opacity:0}12.903225806451612%{opacity:1}93.54838709677419%{opacity:1}100%{opacity:0}}@keyframes shum_cat_a_draw_4{0%,8%{opacity:0}18%{opacity:1}93.54838709677419%{opacity:1}100%{opacity:0}}@keyframes shum_cat_a_draw_6{0%{opacity:0}12.903225806451612%{opacity:1}93.54838709677419%{opacity:1}100%{opacity:0}}@keyframes shum_cat_a_draw_8{24.633431085043988%{stroke-dashoffset:58}56.89149560117301%{stroke-dashoffset:0}100%{stroke-dashoffset:0}}@keyframes shum_cat_a_draw_9{26.099706744868033%{stroke-dashoffset:58}58.35777126099706%{stroke-dashoffset:0}100%{stroke-dashoffset:0}}@keyframes shum_cat_a_draw_10{27.56598240469208%{stroke-dashoffset:58}59.82404692082112%{stroke-dashoffset:0}100%{stroke-dashoffset:0}}@keyframes shum_cat_a_draw_11{29.03225806451613%{stroke-dashoffset:58}61.29032258064516%{stroke-dashoffset:0}100%{stroke-dashoffset:0}}
</style>
</svg>